<svg width="118" height="134" viewBox="0 0 118 134" fill="none" xmlns="http://www.w3.org/2000/svg">
<rect x="30.0002" y="15.4194" width="88" height="88" rx="44" fill="#CE7D63"/>
<path fill-rule="evenodd" clip-rule="evenodd" d="M64.6252 38.7944L92.7502 38.7944C93.2475 38.7944 93.7244 38.992 94.0761 39.3436C94.4277 39.6952 94.6252 40.1722 94.6252 40.6694V68.7944C94.6252 69.83 93.7858 70.6694 92.7502 70.6694C91.7147 70.6694 90.8752 69.83 90.8752 68.7944V45.1961L56.5761 79.4953C55.8438 80.2275 54.6567 80.2275 53.9244 79.4953C53.1922 78.763 53.1922 77.5758 53.9244 76.8436L88.2236 42.5444L64.6252 42.5444C63.5897 42.5444 62.7502 41.705 62.7502 40.6694C62.7502 39.6339 63.5897 38.7944 64.6252 38.7944Z" fill="#0F0F0F"/>
<path d="M106.767 126.069C90.1798 134.04 71.2297 135.589 53.5683 130.418C35.907 125.248 20.7842 113.724 11.1143 98.0663C1.44445 82.409 -2.08825 63.7267 1.19699 45.6197C4.48223 27.5126 14.3529 11.2622 28.9069 -1.5793e-05L30.9407 2.6282C17.0359 13.3881 7.60552 28.9136 4.46683 46.213C1.32813 63.5123 4.70325 81.3612 13.9418 96.3201C23.1803 111.279 37.6285 122.289 54.502 127.229C71.3756 132.169 89.4804 130.689 105.328 123.074L106.767 126.069Z" fill="#CE7D63"/>
</svg>
